<svg xmlns="http://www.w3.org/2000/svg" width="512" height="512" viewBox="0 0 512 512">
  <rect width="512" height="512" rx="113" fill="#0D0D0D"/>
  <rect x="20.48" y="20.48" width="471.04" height="471.04" rx="96.05" fill="none" stroke="#A9BCD3" stroke-opacity="0.55" stroke-width="10.24"/>
  <path fill="#FFFFFF" d="M202.18 188.77Q208.51 188.77 213.46 190.28Q218.42 191.80 218.42 192.07L218.42 192.07L218.42 238.05L200.80 238.05Q183.73 238.05 176.16 246.86Q168.59 255.67 168.59 273.02L168.59 273.02L168.59 337.72L113.80 337.72L113.80 192.35L158.68 192.35L162.25 214.37Q167.21 201.71 177.95 195.24Q188.69 188.77 202.18 188.77L202.18 188.77ZM343.41 189.04Q372.87 189.04 388.84 208.32Q404.81 227.59 404.81 265.31L404.81 265.31Q404.81 302.75 388.84 321.89Q372.87 341.02 343.41 341.02L343.41 341.02Q318.08 341.02 302.67 324.50L302.67 324.50L302.67 391.95L247.88 391.95L247.88 192.35L292.48 192.35L297.16 213.00Q313.13 189.04 343.41 189.04L343.41 189.04ZM326.34 229.52Q314.23 229.52 308.17 238.05Q302.12 246.59 302.12 260.35L302.12 260.35L302.12 269.44Q302.12 283.20 308.17 291.88Q314.23 300.55 326.34 300.55L326.34 300.55Q350.02 300.55 350.02 272.19L350.02 272.19L350.02 257.60Q350.02 229.52 326.34 229.52L326.34 229.52Z"/>
</svg>